<svg width="1024" height="1024" viewBox="0 0 1024 1024" fill="none" xmlns="http://www.w3.org/2000/svg">
<circle cx="512" cy="512" r="417" fill="#7A8486"/>
<path d="M425.502 611.655C415.515 611.592 405.876 609.917 396.584 606.63C387.355 603.343 379.075 598.001 371.742 590.606C364.41 583.21 358.594 573.413 354.296 561.213C350.061 549.013 347.944 534.033 347.944 516.271C348.007 499.962 349.871 485.392 353.538 472.561C357.267 459.666 362.577 448.73 369.467 439.755C376.42 430.779 384.732 423.952 394.403 419.274C404.074 414.534 414.915 412.163 426.925 412.163C439.883 412.163 451.324 414.692 461.248 419.749C471.172 424.742 479.136 431.537 485.141 440.134C491.21 448.73 494.876 458.37 496.14 469.053H455.654C454.074 462.289 450.755 456.979 445.698 453.124C440.641 449.268 434.384 447.34 426.925 447.34C414.283 447.34 404.675 452.839 398.101 463.838C391.59 474.836 388.272 489.786 388.145 508.685H389.473C392.38 502.933 396.299 498.034 401.23 493.989C406.223 489.88 411.881 486.751 418.202 484.602C424.586 482.39 431.318 481.284 438.397 481.284C449.902 481.284 460.142 484.002 469.118 489.438C478.093 494.811 485.173 502.206 490.356 511.625C495.539 521.043 498.131 531.82 498.131 543.957C498.131 557.104 495.065 568.798 488.934 579.038C482.866 589.278 474.364 597.306 463.429 603.121C452.556 608.874 439.914 611.718 425.502 611.655ZM425.313 579.418C431.634 579.418 437.291 577.901 442.285 574.866C447.278 571.832 451.197 567.724 454.042 562.54C456.886 557.357 458.309 551.542 458.309 545.094C458.309 538.647 456.886 532.863 454.042 527.743C451.261 522.623 447.405 518.546 442.474 515.512C437.544 512.478 431.918 510.961 425.597 510.961C420.857 510.961 416.463 511.846 412.418 513.616C408.436 515.386 404.928 517.851 401.893 521.011C398.923 524.172 396.584 527.838 394.877 532.01C393.17 536.119 392.317 540.512 392.317 545.189C392.317 551.447 393.739 557.168 396.584 562.351C399.491 567.534 403.411 571.674 408.341 574.772C413.335 577.869 418.992 579.418 425.313 579.418ZM597.498 412.163C607.485 412.163 617.093 413.838 626.321 417.189C635.613 420.539 643.894 425.88 651.163 433.212C658.495 440.545 664.279 450.279 668.514 462.415C672.813 474.489 674.993 489.311 675.056 506.884C675.056 523.382 673.192 538.11 669.462 551.068C665.796 563.963 660.518 574.93 653.628 583.969C646.738 593.008 638.426 599.898 628.692 604.638C618.957 609.316 608.085 611.655 596.075 611.655C583.117 611.655 571.676 609.158 561.752 604.164C551.828 599.108 543.832 592.249 537.764 583.589C531.759 574.866 528.124 565.069 526.86 554.197H567.346C568.926 561.276 572.245 566.776 577.302 570.695C582.359 574.55 588.616 576.478 596.075 576.478C608.717 576.478 618.325 570.979 624.899 559.98C631.473 548.919 634.792 533.78 634.855 514.564H633.527C630.62 520.253 626.701 525.152 621.77 529.26C616.84 533.306 611.183 536.435 604.798 538.647C598.477 540.859 591.745 541.966 584.603 541.966C573.162 541.966 562.953 539.279 553.977 533.906C545.001 528.533 537.922 521.138 532.739 511.719C527.555 502.301 524.964 491.555 524.964 479.482C524.901 466.461 527.903 454.862 533.971 444.685C540.039 434.508 548.51 426.544 559.382 420.792C570.317 414.976 583.022 412.1 597.498 412.163ZM597.782 444.401C591.398 444.401 585.709 445.918 580.715 448.952C575.785 451.986 571.866 456.063 568.958 461.183C566.114 466.303 564.723 472.023 564.786 478.344C564.786 484.729 566.177 490.481 568.958 495.601C571.803 500.658 575.658 504.703 580.526 507.737C585.456 510.708 591.082 512.194 597.403 512.194C602.143 512.194 606.537 511.309 610.582 509.539C614.627 507.769 618.136 505.335 621.107 502.238C624.141 499.077 626.511 495.443 628.218 491.334C629.924 487.225 630.778 482.864 630.778 478.25C630.714 472.118 629.261 466.493 626.416 461.373C623.572 456.252 619.653 452.144 614.659 449.047C609.665 445.949 604.04 444.401 597.782 444.401Z" fill="white"/>
</svg>
